<?xml version="1.0" encoding="iso-8859-1"?>
<!-- Generator: Adobe Illustrator 19.0.0, SVG Export Plug-In . SVG Version: 6.00 Build 0)  -->
<svg version="1.1" id="Layer_1" xmlns="http://www.w3.org/2000/svg" xmlns:xlink="http://www.w3.org/1999/xlink" x="0px" y="0px"
	 viewBox="0 0 512 512" style="enable-background:new 0 0 512 512;" xml:space="preserve">
<g>
	<g>
		<circle cx="87.129" cy="43.735" r="8.72"/>
	</g>
</g>
<g>
	<g>
		<circle cx="423.057" cy="44.612" r="8.72"/>
	</g>
</g>
<g>
	<g>
		<circle cx="115.723" cy="38.793" r="8.72"/>
	</g>
</g>
<g>
	<g>
		<circle cx="150.802" cy="38.793" r="8.72"/>
	</g>
</g>
<g>
	<g>
		<circle cx="185.868" cy="38.793" r="8.72"/>
	</g>
</g>
<g>
	<g>
		<circle cx="220.935" cy="38.793" r="8.72"/>
	</g>
</g>
<g>
	<g>
		<circle cx="256.002" cy="38.793" r="8.72"/>
	</g>
</g>
<g>
	<g>
		<circle cx="291.069" cy="38.793" r="8.72"/>
	</g>
</g>
<g>
	<g>
		<circle cx="326.135" cy="38.793" r="8.72"/>
	</g>
</g>
<g>
	<g>
		<circle cx="361.202" cy="38.793" r="8.72"/>
	</g>
</g>
<g>
	<g>
		<circle cx="396.269" cy="38.793" r="8.72"/>
	</g>
</g>
<g>
	<g>
		<circle cx="115.723" cy="474.296" r="8.72"/>
	</g>
</g>
<g>
	<g>
		<circle cx="150.802" cy="474.296" r="8.72"/>
	</g>
</g>
<g>
	<g>
		<circle cx="185.868" cy="474.296" r="8.72"/>
	</g>
</g>
<g>
	<g>
		<circle cx="220.935" cy="474.296" r="8.72"/>
	</g>
</g>
<g>
	<g>
		<circle cx="256.002" cy="474.296" r="8.72"/>
	</g>
</g>
<g>
	<g>
		<circle cx="291.069" cy="474.296" r="8.72"/>
	</g>
</g>
<g>
	<g>
		<circle cx="326.135" cy="474.296" r="8.72"/>
	</g>
</g>
<g>
	<g>
		<circle cx="361.202" cy="474.296" r="8.72"/>
	</g>
</g>
<g>
	<g>
		<circle cx="396.269" cy="474.296" r="8.72"/>
	</g>
</g>
<g>
	<g>
		<circle cx="422.243" cy="470.029" r="8.72"/>
	</g>
</g>
<g>
	<g>
		<circle cx="84.658" cy="109.723" r="8.72"/>
	</g>
</g>
<g>
	<g>
		<circle cx="84.658" cy="146.592" r="8.72"/>
	</g>
</g>
<g>
	<g>
		<circle cx="84.658" cy="183.461" r="8.72"/>
	</g>
</g>
<g>
	<g>
		<circle cx="84.658" cy="220.33" r="8.72"/>
	</g>
</g>
<g>
	<g>
		<circle cx="84.658" cy="257.199" r="8.72"/>
	</g>
</g>
<g>
	<g>
		<circle cx="84.658" cy="294.079" r="8.72"/>
	</g>
</g>
<g>
	<g>
		<circle cx="84.658" cy="330.937" r="8.72"/>
	</g>
</g>
<g>
	<g>
		<circle cx="84.658" cy="367.817" r="8.72"/>
	</g>
</g>
<g>
	<g>
		<circle cx="84.658" cy="404.686" r="8.72"/>
	</g>
</g>
<g>
	<g>
		<circle cx="84.658" cy="441.555" r="8.72"/>
	</g>
</g>
<g>
	<g>
		<circle cx="90.086" cy="469.646" r="8.72"/>
	</g>
</g>
<g>
	<g>
		<circle cx="84.658" cy="72.854" r="8.72"/>
	</g>
</g>
<g>
	<g>
		<circle cx="426.034" cy="109.723" r="8.72"/>
	</g>
</g>
<g>
	<g>
		<circle cx="426.034" cy="146.592" r="8.72"/>
	</g>
</g>
<g>
	<g>
		<circle cx="426.034" cy="183.461" r="8.72"/>
	</g>
</g>
<g>
	<g>
		<circle cx="426.034" cy="220.33" r="8.72"/>
	</g>
</g>
<g>
	<g>
		<circle cx="426.034" cy="257.199" r="8.72"/>
	</g>
</g>
<g>
	<g>
		<circle cx="426.034" cy="294.079" r="8.72"/>
	</g>
</g>
<g>
	<g>
		<circle cx="426.034" cy="330.937" r="8.72"/>
	</g>
</g>
<g>
	<g>
		<circle cx="426.034" cy="367.817" r="8.72"/>
	</g>
</g>
<g>
	<g>
		<circle cx="426.034" cy="404.686" r="8.72"/>
	</g>
</g>
<g>
	<g>
		<circle cx="426.034" cy="441.555" r="8.72"/>
	</g>
</g>
<g>
	<g>
		<circle cx="426.034" cy="72.854" r="8.72"/>
	</g>
</g>
<g>
	<g>
		<path d="M427.328,0H84.672C62.831,0,45.062,17.769,45.062,39.612v432.778c0,21.841,17.769,39.611,39.611,39.611h342.655
			c21.841,0,39.611-17.769,39.611-39.611V39.612C466.939,17.769,449.17,0,427.328,0z M427.329,494.56H84.672
			c-12.224,0-22.17-9.946-22.17-22.17V39.612c0-12.226,9.946-22.171,22.17-22.171h342.655c12.225,0,22.17,9.946,22.17,22.171
			v432.778h0.001C449.499,484.615,439.553,494.56,427.329,494.56z"/>
	</g>
</g>
<g>
	<g>
		<path d="M396.272,155.316c4.816,0,8.72-3.904,8.72-8.72V68.566c0-4.816-3.904-8.72-8.72-8.72H115.729
			c-4.816,0-8.72,3.904-8.72,8.72v374.867c0,4.817,3.904,8.72,8.72,8.72h280.543c4.816,0,8.72-3.903,8.72-8.72V192.185
			c0-4.816-3.904-8.72-8.72-8.72s-8.72,3.904-8.72,8.72v242.528H124.449V77.286h263.103v69.309
			C387.552,151.411,391.456,155.316,396.272,155.316z"/>
	</g>
</g>
<g>
</g>
<g>
</g>
<g>
</g>
<g>
</g>
<g>
</g>
<g>
</g>
<g>
</g>
<g>
</g>
<g>
</g>
<g>
</g>
<g>
</g>
<g>
</g>
<g>
</g>
<g>
</g>
<g>
</g>
</svg>
